<?xml version="1.0" encoding="utf-8"?>
<!-- Generator: Adobe Illustrator 19.2.1, SVG Export Plug-In . SVG Version: 6.00 Build 0)  -->
<svg version="1.1" id="layer" xmlns="http://www.w3.org/2000/svg" xmlns:xlink="http://www.w3.org/1999/xlink" x="0px" y="0px"
	 viewBox="0 0 652 652" style="enable-background:new 0 0 652 652;" xml:space="preserve">
<style type="text/css">
	.st0{fill:#430098;}
</style>
<g id="logos">
	<g id="Page-1">
		<g id="main">
			<g id="nav">
				<path id="logo" class="st0" d="M156.7,238H36.1c-8.3,0-15.1,6.7-15.1,15c0,0,0,0.1,0,0.1v137.8c0,8.3,6.7,15.1,15,15.1
					c0,0,0.1,0,0.1,0h120.6c8.3,0,15.1-6.7,15.1-15c0,0,0-0.1,0-0.1V253.1c0-8.3-6.7-15.1-15-15.1C156.8,238,156.8,238,156.7,238z
					 M163.5,390.9c0.1,3.7-2.9,6.7-6.5,6.7c-0.1,0-0.1,0-0.2,0H36.1c-3.7,0.1-6.7-2.9-6.7-6.5c0-0.1,0-0.1,0-0.2V253.1
					c-0.1-3.7,2.9-6.7,6.5-6.7c0.1,0,0.1,0,0.2,0h120.6c3.7-0.1,6.7,2.9,6.7,6.5c0,0.1,0,0.1,0,0.2V390.9z M58.9,380.8l18.9-16.9
					L58.9,347V380.8z M126.9,312.8c-5.4-5.2-12.7-7.9-20.2-7.6c-10.7,0.3-21.4,2.2-31.5,5.9v-47.8H58.4v72.7l11.8-5.5
					c0,0,19.3-8.8,36.2-8.8c8.4,0,10.5,4.6,10.5,8.8v50.4h16.9v-50.4C134.1,323.8,131.6,317.4,126.9,312.8z M104.7,290.5h16.9
					c6.8-7.6,11.2-17.1,12.5-27.3h-16.9C115.3,273.2,111,282.6,104.7,290.5z M568.8,330v-36.9h16.9V330c0,8.4,2.9,12.6,9.6,12.6
					s9.2-3.8,9.2-12.6v-36.9H621v37.4c0,16.4-8,26.1-26.1,26.1C576.8,356,568.8,346.4,568.8,330z M498.3,293.1h16.9v22.7l17.2-22.7
					h19.3l-21,24.4l22.7,37.8h-18.9l-14.7-24.8l-4.6,5.5v19.3h-16.9L498.3,293.1z M418.5,323.7c0-22.7,15.6-32.3,30.7-32.3
					c15.1,0,30.7,9.6,30.7,32.3S464.3,356,449.1,356C434,356,418.5,346.8,418.5,323.7z M462.6,323.7c0-11.4-5-18.5-13.9-18.5
					c-8.8,0-13.8,7.2-13.8,18.5c0,11.3,5,18.9,13.8,18.9C457.5,342.6,462.6,335.4,462.6,323.7z M350.8,293.1h24.4
					c15.9,0,25.6,5.5,25.6,20.2c0,9.6-4.2,15.6-12.2,18.1l13,24H384l-12.2-21.4h-4.6v21.4h-16.4L350.8,293.1L350.8,293.1z
					 M374.8,320.8c6.7,0,10.1-2.1,10.1-7.2c0-5.1-2.9-7.2-10.1-7.2h-7.2v14.3L374.8,320.8z M286.6,293.1h44.5v13.9h-27.7V317h19.7
					v13h-19.7v11.3h28.9v13.4h-45.8L286.6,293.1z M210.5,293.1h16.9v23.1H248v-23.1h16.9v62.1H248V330h-20.6v25.2h-16.9V293.1z"/>
			</g>
		</g>
	</g>
</g>
</svg>
